<?xml version="1.0" standalone="no"?>
<!DOCTYPE svg PUBLIC "-//W3C//DTD SVG 20010904//EN"
 "http://www.w3.org/TR/2001/REC-SVG-20010904/DTD/svg10.dtd">
<svg version="1.0" xmlns="http://www.w3.org/2000/svg"
 width="700.000000pt" height="700.000000pt" viewBox="0 0 700.000000 700.000000"
 preserveAspectRatio="xMidYMid meet">
<metadata>
Created by potrace 1.14, written by Peter Selinger 2001-2017
</metadata>
<g transform="translate(0.000000,700.000000) scale(0.100000,-0.100000)"
fill="#000000" stroke="none">
<path d="M583 4538 c-6 -18 -35 -101 -63 -184 l-52 -152 -71 -37 c-113 -58
-151 -78 -167 -91 -14 -11 -17 -54 -11 -154 1 -13 20 -15 116 -13 l115 2 1
-482 c1 -532 1 -536 19 -622 54 -260 233 -383 540 -370 58 3 116 7 130 9 61
10 165 37 176 47 9 7 12 49 12 145 0 112 -3 134 -14 130 -54 -21 -187 -38
-263 -34 -78 4 -91 7 -134 36 -27 19 -57 51 -70 75 -22 42 -22 45 -25 554 l-3
512 173 0 c95 0 206 0 246 0 l72 1 0 138 0 138 -242 -1 -243 0 -3 193 -2 192
-113 0 -113 0 -11 -32z"/>
<path d="M4826 4561 c-3 -5 -33 -87 -66 -182 -33 -95 -66 -177 -73 -181 -6 -4
-56 -31 -110 -59 -132 -68 -133 -69 -130 -153 1 -38 4 -71 7 -73 3 -3 54 -4
115 -4 61 1 111 -2 112 -6 0 -5 2 -242 3 -528 2 -445 5 -530 19 -588 46 -187
158 -297 346 -340 62 -15 257 -16 326 -3 63 13 81 17 132 33 l52 16 0 137 -1
138 -80 -18 c-44 -9 -119 -18 -167 -19 -72 -1 -94 2 -138 23 -59 28 -96 76
-112 146 -6 27 -11 235 -11 528 l0 482 245 -2 246 -3 -3 140 -3 140 -230 1
c-126 1 -236 2 -242 3 -10 1 -13 46 -13 191 l0 190 -109 0 c-61 0 -112 -4
-115 -9z"/>
<path d="M6072 4553 c-3 -10 -32 -92 -63 -183 l-56 -165 -124 -66 -124 -66 -3
-82 c-3 -78 -2 -81 20 -82 13 0 66 -1 118 -2 l95 -2 1 -510 c0 -280 3 -523 7
-540 4 -16 9 -45 12 -63 16 -95 81 -206 156 -263 54 -41 134 -75 207 -87 81
-12 311 -5 362 12 8 2 41 12 73 21 l57 16 0 140 0 140 -22 -7 c-66 -20 -137
-31 -217 -33 -142 -3 -215 40 -252 148 -13 40 -16 114 -15 536 l1 490 180 2
c99 1 209 2 245 3 l65 0 -2 122 c-1 68 -2 130 -2 138 -1 13 -32 15 -233 15
-128 -1 -238 0 -244 2 -8 3 -11 63 -10 194 l1 189 -113 0 c-98 0 -114 -2 -120
-17z"/>
<path d="M3338 4215 c-2 -2 -32 -6 -68 -9 -311 -32 -555 -245 -635 -556 -27
-105 -39 -202 -39 -325 0 -554 333 -907 839 -890 144 5 169 9 260 37 212 66
375 218 458 428 51 130 75 280 72 447 -6 253 -58 423 -181 583 -140 183 -338
277 -595 284 -60 2 -110 2 -111 1z m222 -320 c201 -71 291 -254 285 -580 -4
-161 -8 -195 -35 -285 -40 -135 -134 -241 -242 -276 -66 -21 -214 -26 -276 -9
-220 58 -326 262 -317 610 9 335 108 503 325 551 70 15 201 10 260 -11z"/>
<path d="M1520 3319 l0 -156 400 -1 c296 0 400 3 401 11 3 69 -1 290 -5 295
-4 3 -184 6 -401 6 l-395 1 0 -156z"/>
</g>
</svg>
